<svg xmlns="http://www.w3.org/2000/svg" width="1476" height="551" viewBox="0 0 1476 551">
  <defs>
    <style>
      .cls-1 {
        fill: #fff;
        fill-rule: evenodd;
      }
    </style>
  </defs>
  <path class="cls-1" d="M197.448,547.233h36.016c6.069,0,29.273-3.161,42.084-26.445L424.635,256.565c15.277-27.974-2.743-51.716-18.671-57.626L366.321,181.18c-21.356-9.558-46.978.529-56.605,22.867L216.107,392.092H214.7L121.2,204.047c-9.638-22.338-35.26-32.425-56.594-22.867L24.97,198.939C9.008,204.849-9,228.591,6.269,256.565l149.1,264.223C168.162,544.072,191.379,547.233,197.448,547.233Zm654.988,0h36.028c6.086,0,29.3-3.161,42.079-26.445L1079.65,256.565c15.26-27.974-2.75-51.716-18.68-57.626l-39.65-17.759c-21.349-9.558-46.96.529-56.6,22.867l-93.6,188.045h-1.407L776.184,204.047c-9.649-22.338-35.249-32.425-56.595-22.867l-39.631,17.759c-15.939,5.91-33.97,29.652-18.683,57.626L810.362,520.788C823.163,544.072,846.367,547.233,852.436,547.233Zm437.494-368.4c-102.72,0-186.04,83.326-186.04,186.048C1103.89,467.7,1187.21,551,1289.93,551,1392.74,551,1476,467.7,1476,364.879,1476,262.157,1392.74,178.831,1289.93,178.831Zm0,259.53a73.447,73.447,0,1,1,73.46-73.482A73.457,73.457,0,0,1,1289.93,438.361ZM615.773,72.923A72.928,72.928,0,1,1,542.845,0,72.916,72.916,0,0,1,615.773,72.923ZM479.392,227.661a44.942,44.942,0,0,1,44.968-44.97h37.621a44.96,44.96,0,0,1,44.98,44.97V502.285a44.965,44.965,0,0,1-44.98,44.972H524.36a44.947,44.947,0,0,1-44.968-44.972V227.661Z"/>
</svg>
